<svg width="126" height="48" viewBox="0 0 126 48" fill="none" xmlns="http://www.w3.org/2000/svg">
<path d="M39.864 16.588V26H35.158V16.588H33.598V12.662H35.158V8.658H39.864V12.662H42.542V16.588H39.864ZM49.3727 12.662V26H44.6667V12.662H49.3727ZM44.3547 7.54C44.3547 7.176 44.424 6.838 44.5627 6.526C44.7014 6.19667 44.892 5.91067 45.1347 5.668C45.3774 5.42533 45.6547 5.23467 45.9667 5.096C46.296 4.95733 46.6427 4.888 47.0067 4.888C47.3707 4.888 47.7087 4.95733 48.0207 5.096C48.35 5.23467 48.636 5.42533 48.8787 5.668C49.1214 5.91067 49.312 6.19667 49.4507 6.526C49.5894 6.838 49.6587 7.176 49.6587 7.54C49.6587 7.904 49.5894 8.25067 49.4507 8.58C49.312 8.892 49.1214 9.16933 48.8787 9.412C48.636 9.65467 48.35 9.84533 48.0207 9.984C47.7087 10.1227 47.3707 10.192 47.0067 10.192C46.6427 10.192 46.296 10.1227 45.9667 9.984C45.6547 9.84533 45.3774 9.65467 45.1347 9.412C44.892 9.16933 44.7014 8.892 44.5627 8.58C44.424 8.25067 44.3547 7.904 44.3547 7.54ZM63.2226 19.37C63.2226 18.954 63.1446 18.564 62.9886 18.2C62.8499 17.8187 62.6419 17.4893 62.3646 17.212C62.0872 16.9347 61.7579 16.718 61.3766 16.562C61.0126 16.3887 60.6139 16.302 60.1806 16.302C59.7646 16.302 59.3746 16.38 59.0106 16.536C58.6466 16.692 58.3259 16.9087 58.0486 17.186C57.7886 17.4633 57.5719 17.7927 57.3986 18.174C57.2426 18.538 57.1646 18.928 57.1646 19.344C57.1646 19.76 57.2426 20.15 57.3986 20.514C57.5546 20.878 57.7712 21.1987 58.0486 21.476C58.3259 21.736 58.6466 21.9527 59.0106 22.126C59.3919 22.282 59.7906 22.36 60.2066 22.36C60.6226 22.36 61.0126 22.282 61.3766 22.126C61.7406 21.97 62.0526 21.7533 62.3126 21.476C62.5899 21.1987 62.8066 20.878 62.9626 20.514C63.1359 20.15 63.2226 19.7687 63.2226 19.37ZM57.2946 32.656H52.5886V12.662H57.2946V14.144C58.2999 12.8787 59.6692 12.246 61.4026 12.246C62.3559 12.246 63.2399 12.4367 64.0546 12.818C64.8866 13.182 65.6059 13.6847 66.2126 14.326C66.8192 14.9673 67.2872 15.7213 67.6166 16.588C67.9632 17.4547 68.1366 18.382 68.1366 19.37C68.1366 20.358 67.9632 21.2767 67.6166 22.126C67.2872 22.9753 66.8192 23.7207 66.2126 24.362C65.6232 25.0033 64.9212 25.506 64.1066 25.87C63.2919 26.234 62.4079 26.416 61.4546 26.416C59.7906 26.416 58.4039 25.844 57.2946 24.7V32.656ZM81.453 19.37C81.453 18.954 81.375 18.564 81.219 18.2C81.0804 17.8187 80.8724 17.4893 80.595 17.212C80.3177 16.9347 79.9884 16.718 79.607 16.562C79.243 16.3887 78.8444 16.302 78.411 16.302C77.995 16.302 77.605 16.38 77.241 16.536C76.877 16.692 76.5564 16.9087 76.279 17.186C76.019 17.4633 75.8024 17.7927 75.629 18.174C75.473 18.538 75.395 18.928 75.395 19.344C75.395 19.76 75.473 20.15 75.629 20.514C75.785 20.878 76.0017 21.1987 76.279 21.476C76.5564 21.736 76.877 21.9527 77.241 22.126C77.6224 22.282 78.021 22.36 78.437 22.36C78.853 22.36 79.243 22.282 79.607 22.126C79.971 21.97 80.283 21.7533 80.543 21.476C80.8204 21.1987 81.037 20.878 81.193 20.514C81.3664 20.15 81.453 19.7687 81.453 19.37ZM75.525 32.656H70.819V12.662H75.525V14.144C76.5304 12.8787 77.8997 12.246 79.633 12.246C80.5864 12.246 81.4704 12.4367 82.285 12.818C83.117 13.182 83.8364 13.6847 84.443 14.326C85.0497 14.9673 85.5177 15.7213 85.847 16.588C86.1937 17.4547 86.367 18.382 86.367 19.37C86.367 20.358 86.1937 21.2767 85.847 22.126C85.5177 22.9753 85.0497 23.7207 84.443 24.362C83.8537 25.0033 83.1517 25.506 82.337 25.87C81.5224 26.234 80.6384 26.416 79.685 26.416C78.021 26.416 76.6344 25.844 75.525 24.7V32.656ZM93.7555 4.42V26H89.0495V4.42H93.7555ZM106.721 17.394C106.565 16.7353 106.245 16.2067 105.759 15.808C105.274 15.4093 104.685 15.21 103.991 15.21C103.263 15.21 102.665 15.4007 102.197 15.782C101.747 16.1633 101.461 16.7007 101.339 17.394H106.721ZM101.209 20.124C101.209 22.152 102.163 23.166 104.069 23.166C105.092 23.166 105.863 22.75 106.383 21.918H110.933C110.015 24.9687 107.718 26.494 104.043 26.494C102.917 26.494 101.885 26.3293 100.949 26C100.013 25.6533 99.2074 25.168 98.5314 24.544C97.8727 23.92 97.3614 23.1747 96.9974 22.308C96.6334 21.4413 96.4514 20.4707 96.4514 19.396C96.4514 18.2867 96.6247 17.29 96.9714 16.406C97.318 15.5047 97.812 14.742 98.4534 14.118C99.0947 13.494 99.866 13.0173 100.767 12.688C101.686 12.3413 102.717 12.168 103.861 12.168C104.988 12.168 106.002 12.3413 106.903 12.688C107.805 13.0173 108.567 13.5027 109.191 14.144C109.815 14.7853 110.292 15.574 110.621 16.51C110.951 17.4287 111.115 18.4687 111.115 19.63V20.124H101.209ZM122.645 16.094C121.779 15.6433 120.929 15.418 120.097 15.418C119.664 15.418 119.309 15.5047 119.031 15.678C118.771 15.8513 118.641 16.0853 118.641 16.38C118.641 16.536 118.659 16.666 118.693 16.77C118.745 16.8567 118.841 16.9433 118.979 17.03C119.135 17.1167 119.352 17.1947 119.629 17.264C119.924 17.3333 120.305 17.42 120.773 17.524C122.073 17.784 123.044 18.252 123.685 18.928C124.327 19.5867 124.647 20.436 124.647 21.476C124.647 22.256 124.491 22.958 124.179 23.582C123.867 24.206 123.434 24.7347 122.879 25.168C122.325 25.584 121.657 25.9047 120.877 26.13C120.097 26.3727 119.239 26.494 118.303 26.494C116.501 26.494 114.724 25.9827 112.973 24.96L114.689 21.632C116.007 22.5333 117.255 22.984 118.433 22.984C118.867 22.984 119.222 22.8887 119.499 22.698C119.777 22.5073 119.915 22.2647 119.915 21.97C119.915 21.7967 119.889 21.658 119.837 21.554C119.803 21.4327 119.716 21.3287 119.577 21.242C119.439 21.138 119.231 21.0513 118.953 20.982C118.693 20.8953 118.347 20.8087 117.913 20.722C116.457 20.4273 115.435 19.994 114.845 19.422C114.273 18.8327 113.987 18.0267 113.987 17.004C113.987 16.2587 114.126 15.5913 114.403 15.002C114.681 14.3953 115.079 13.884 115.599 13.468C116.119 13.052 116.743 12.7313 117.471 12.506C118.217 12.2807 119.04 12.168 119.941 12.168C121.415 12.168 122.845 12.454 124.231 13.026L122.645 16.094Z" fill="#00AA58"/>
<path d="M45.5566 36.7773V42H44.0186V36.7773H43.3623V35.3418H44.0186V32.9014H45.5566V35.3418H46.7529V36.7773H45.5566ZM49.3369 35.3418V42H47.7988V35.3418H49.3369ZM47.5664 32.5732C47.5664 32.3044 47.6644 32.0719 47.8604 31.876C48.0563 31.68 48.291 31.582 48.5645 31.582C48.8424 31.582 49.0794 31.68 49.2754 31.876C49.4714 32.0674 49.5693 32.3021 49.5693 32.5801C49.5693 32.8581 49.4714 33.0951 49.2754 33.291C49.084 33.487 48.8493 33.585 48.5713 33.585C48.2933 33.585 48.0563 33.487 47.8604 33.291C47.6644 33.0951 47.5664 32.8558 47.5664 32.5732ZM52.8232 45.623H51.2852V35.3418H52.8232V36.0664C53.4294 35.4603 54.1175 35.1572 54.8877 35.1572C55.8037 35.1572 56.5579 35.4945 57.1504 36.1689C57.752 36.8389 58.0527 37.6842 58.0527 38.7051C58.0527 39.7031 57.7542 40.5348 57.1572 41.2002C56.5648 41.861 55.8174 42.1914 54.915 42.1914C54.1357 42.1914 53.4385 41.8792 52.8232 41.2549V45.623ZM56.4805 38.7119C56.4805 38.0739 56.3073 37.5544 55.9609 37.1533C55.61 36.7477 55.168 36.5449 54.6348 36.5449C54.0697 36.5449 53.6117 36.7409 53.2607 37.1328C52.9098 37.5247 52.7344 38.0397 52.7344 38.6777C52.7344 39.3021 52.9098 39.8171 53.2607 40.2227C53.6071 40.6191 54.0628 40.8174 54.6279 40.8174C55.1611 40.8174 55.6009 40.6169 55.9473 40.2158C56.3027 39.8148 56.4805 39.3135 56.4805 38.7119ZM69.1816 35.6289V37.6729C68.8307 37.2445 68.5163 36.9505 68.2383 36.791C67.9648 36.627 67.6436 36.5449 67.2744 36.5449C66.6956 36.5449 66.2148 36.7477 65.832 37.1533C65.4492 37.5589 65.2578 38.0671 65.2578 38.6777C65.2578 39.3021 65.4424 39.8148 65.8115 40.2158C66.1852 40.6169 66.6615 40.8174 67.2402 40.8174C67.6094 40.8174 67.9352 40.7376 68.2178 40.5781C68.4912 40.4232 68.8125 40.1224 69.1816 39.6758V41.7061C68.5573 42.0296 67.9329 42.1914 67.3086 42.1914C66.2786 42.1914 65.4173 41.8587 64.7246 41.1934C64.0319 40.5234 63.6855 39.6917 63.6855 38.6982C63.6855 37.7048 64.0365 36.8662 64.7383 36.1826C65.4401 35.499 66.3014 35.1572 67.3223 35.1572C67.9785 35.1572 68.5983 35.3145 69.1816 35.6289ZM75.5801 35.3418H77.125V42H75.5801V41.3027C74.9466 41.8952 74.2653 42.1914 73.5361 42.1914C72.6156 42.1914 71.8545 41.8587 71.2529 41.1934C70.6559 40.5143 70.3574 39.6667 70.3574 38.6504C70.3574 37.6523 70.6559 36.8206 71.2529 36.1553C71.8499 35.4899 72.5973 35.1572 73.4951 35.1572C74.2699 35.1572 74.9648 35.4762 75.5801 36.1143V35.3418ZM71.9297 38.6504C71.9297 39.2884 72.1006 39.8079 72.4424 40.209C72.7933 40.6146 73.2354 40.8174 73.7686 40.8174C74.3382 40.8174 74.7985 40.6214 75.1494 40.2295C75.5003 39.8239 75.6758 39.3089 75.6758 38.6846C75.6758 38.0602 75.5003 37.5452 75.1494 37.1396C74.7985 36.7432 74.3428 36.5449 73.7822 36.5449C73.2536 36.5449 72.8115 36.7454 72.4561 37.1465C72.1051 37.5521 71.9297 38.0534 71.9297 38.6504ZM80.6045 30.4541V42H79.0664V30.4541H80.6045ZM87.7344 35.6289V37.6729C87.3835 37.2445 87.069 36.9505 86.791 36.791C86.5176 36.627 86.1963 36.5449 85.8271 36.5449C85.2484 36.5449 84.7676 36.7477 84.3848 37.1533C84.002 37.5589 83.8105 38.0671 83.8105 38.6777C83.8105 39.3021 83.9951 39.8148 84.3643 40.2158C84.738 40.6169 85.2142 40.8174 85.793 40.8174C86.1621 40.8174 86.488 40.7376 86.7705 40.5781C87.0439 40.4232 87.3652 40.1224 87.7344 39.6758V41.7061C87.11 42.0296 86.4857 42.1914 85.8613 42.1914C84.8314 42.1914 83.9701 41.8587 83.2773 41.1934C82.5846 40.5234 82.2383 39.6917 82.2383 38.6982C82.2383 37.7048 82.5892 36.8662 83.291 36.1826C83.9928 35.499 84.8542 35.1572 85.875 35.1572C86.5312 35.1572 87.151 35.3145 87.7344 35.6289ZM90.7627 35.3418V39.1631C90.7627 40.266 91.1979 40.8174 92.0684 40.8174C92.9388 40.8174 93.374 40.266 93.374 39.1631V35.3418H94.9121V39.1973C94.9121 39.7305 94.846 40.1908 94.7139 40.5781C94.5863 40.9245 94.3652 41.2367 94.0508 41.5146C93.5312 41.9658 92.8704 42.1914 92.0684 42.1914C91.2708 42.1914 90.6123 41.9658 90.0928 41.5146C89.7738 41.2367 89.5482 40.9245 89.416 40.5781C89.2884 40.2682 89.2246 39.8079 89.2246 39.1973V35.3418H90.7627ZM98.3916 30.4541V42H96.8535V30.4541H98.3916ZM105.248 35.3418H106.793V42H105.248V41.3027C104.615 41.8952 103.933 42.1914 103.204 42.1914C102.284 42.1914 101.522 41.8587 100.921 41.1934C100.324 40.5143 100.025 39.6667 100.025 38.6504C100.025 37.6523 100.324 36.8206 100.921 36.1553C101.518 35.4899 102.265 35.1572 103.163 35.1572C103.938 35.1572 104.633 35.4762 105.248 36.1143V35.3418ZM101.598 38.6504C101.598 39.2884 101.769 39.8079 102.11 40.209C102.461 40.6146 102.903 40.8174 103.437 40.8174C104.006 40.8174 104.466 40.6214 104.817 40.2295C105.168 39.8239 105.344 39.3089 105.344 38.6846C105.344 38.0602 105.168 37.5452 104.817 37.1396C104.466 36.7432 104.011 36.5449 103.45 36.5449C102.922 36.5449 102.479 36.7454 102.124 37.1465C101.773 37.5521 101.598 38.0534 101.598 38.6504ZM110.32 36.7773V42H108.782V36.7773H108.126V35.3418H108.782V32.9014H110.32V35.3418H111.517V36.7773H110.32ZM112.344 38.623C112.344 37.6615 112.688 36.8434 113.376 36.1689C114.064 35.4945 114.903 35.1572 115.892 35.1572C116.885 35.1572 117.728 35.4967 118.421 36.1758C119.104 36.8548 119.446 37.6888 119.446 38.6777C119.446 39.6758 119.102 40.512 118.414 41.1865C117.721 41.8564 116.871 42.1914 115.864 42.1914C114.866 42.1914 114.03 41.8496 113.355 41.166C112.681 40.4915 112.344 39.6439 112.344 38.623ZM113.916 38.6504C113.916 39.3158 114.094 39.8421 114.449 40.2295C114.814 40.6214 115.295 40.8174 115.892 40.8174C116.493 40.8174 116.974 40.6237 117.334 40.2363C117.694 39.849 117.874 39.3317 117.874 38.6846C117.874 38.0374 117.694 37.5202 117.334 37.1328C116.969 36.7409 116.489 36.5449 115.892 36.5449C115.304 36.5449 114.827 36.7409 114.463 37.1328C114.098 37.5247 113.916 38.0306 113.916 38.6504ZM121.08 35.3418H122.618V35.9365C122.901 35.6403 123.151 35.4375 123.37 35.3281C123.593 35.2142 123.858 35.1572 124.163 35.1572C124.569 35.1572 124.993 35.2894 125.435 35.5537L124.73 36.9619C124.439 36.7523 124.154 36.6475 123.876 36.6475C123.037 36.6475 122.618 37.2809 122.618 38.5479V42H121.08V35.3418Z" fill="#00AA58"/>
<path d="M14.1426 12C15.5426 12 28.1426 11.9 28.1426 8V4C28.1426 0.0999999 15.5426 0 14.1426 0C12.7426 0 0.142578 0.0999999 0.142578 4V8C0.142578 11.9 12.7426 12 14.1426 12ZM2.14258 7.9V6.3C2.44258 6.4 2.74258 6.6 3.14258 6.7V8.6C2.64258 8.3 2.24258 8.1 2.14258 7.9ZM12.1426 8V10C11.0426 10 10.0426 9.9 9.14258 9.8V7.8C10.2426 7.9 11.2426 7.9 12.1426 8ZM7.14258 9.5C6.44258 9.4 5.74258 9.3 5.14258 9.1V7.2C5.74258 7.3 6.44258 7.4 7.14258 7.5V9.5ZM14.1426 10V8C15.2426 8 22.5426 7.9 26.1426 6.3V8C25.6426 8.7 21.2426 10 14.1426 10ZM15.4426 2C15.5426 2 15.7426 2 15.8426 2C16.1426 2 16.3426 2 16.6426 2C16.8426 2 16.9426 2 17.1426 2C17.3426 2 17.6426 2 17.8426 2C18.0426 2 18.1426 2 18.3426 2C18.5426 2 18.7426 2 18.9426 2C19.1426 2 19.2426 2 19.4426 2C19.6426 2 19.8426 2 20.0426 2.1C20.2426 2.1 20.3426 2.1 20.4426 2.2C20.6426 2.2 20.7426 2.2 20.9426 2.3C21.0426 2.3 21.2426 2.3 21.3426 2.4C21.5426 2.4 21.6426 2.4 21.8426 2.5C21.9426 2.5 22.1426 2.5 22.2426 2.6C22.3426 2.6 22.5426 2.7 22.6426 2.7C22.7426 2.7 22.8426 2.8 23.0426 2.8C23.1426 2.8 23.3426 2.9 23.4426 2.9C23.5426 2.9 23.6426 3 23.7426 3C23.8426 3 23.9426 3.1 24.0426 3.1C24.1426 3.1 24.2426 3.2 24.3426 3.2C24.4426 3.2 24.5426 3.3 24.6426 3.3C24.7426 3.3 24.8426 3.4 24.8426 3.4C24.9426 3.4 25.0426 3.5 25.0426 3.5C25.1426 3.5 25.1426 3.6 25.2426 3.6C25.3426 3.6 25.3426 3.7 25.4426 3.7C25.5426 3.7 25.5426 3.8 25.6426 3.8C25.7426 3.8 25.7426 3.9 25.8426 3.9L25.9426 4L26.0426 4.1L26.1426 4.2C25.4426 5 21.1426 6.2 14.2426 6.2C7.34258 6.2 3.04258 5 2.34258 4.2C2.34258 4.2 2.44258 4.2 2.44258 4.1L2.54258 4C2.54258 4 2.64258 4 2.64258 3.9C2.64258 3.9 2.74258 3.8 2.84258 3.8C2.94258 3.8 2.94258 3.7 3.04258 3.7C3.14258 3.7 3.14258 3.6 3.24258 3.6C3.34258 3.6 3.34258 3.5 3.44258 3.5C3.54258 3.5 3.64258 3.4 3.74258 3.4C3.84258 3.4 3.94258 3.3 3.94258 3.3C4.04258 3.3 4.14258 3.2 4.24258 3.2C4.34258 3.2 4.44258 3.1 4.54258 3.1C4.44258 3 4.64258 3 4.74258 3C4.84258 3 4.94258 2.9 5.04258 2.9C5.14258 2.9 5.24258 2.8 5.44258 2.8C5.54258 2.8 5.64258 2.7 5.84258 2.7C5.94258 2.7 6.14258 2.6 6.24258 2.6C6.34258 2.6 6.54258 2.6 6.64258 2.5C6.74258 2.5 6.94258 2.5 7.14258 2.4C7.24258 2.4 7.44258 2.4 7.54258 2.3C7.74258 2.3 7.84258 2.3 8.04258 2.2C8.14258 2.2 8.34258 2.2 8.44258 2.1C8.64258 2.1 8.84258 2.1 9.04258 2C9.24258 2 9.34258 2 9.54258 2C9.74258 2 9.94258 2 10.1426 2C10.3426 2 10.4426 2 10.6426 2C10.8426 2 11.0426 2 11.3426 2C11.5426 2 11.6426 2 11.8426 2C12.1426 2 12.3426 2 12.6426 2C12.7426 2 12.9426 2 13.0426 2C13.4426 2 13.8426 2 14.3426 2C14.8426 2 15.0426 2 15.4426 2Z" fill="#00AA58"/>
<path d="M6.64219 25.7999C10.3422 25.7999 14.5422 24.9999 15.3422 24.8999C16.7422 24.5999 29.0422 22.0999 28.3422 18.2999L27.5422 14.3999C26.7422 10.5999 14.4422 12.8999 13.0422 13.1999C10.8422 13.5999 8.84219 14.1999 6.94219 14.7999C5.84219 15.1999 4.84219 15.4999 3.94219 15.8999C1.04219 17.1999 -0.257813 18.4999 0.0421875 19.7999L0.842188 23.6999C1.14219 25.2999 3.74219 25.7999 6.64219 25.7999ZM2.44219 21.5999C2.74219 21.6999 3.14219 21.6999 3.54219 21.7999L3.94219 23.5999C3.34219 23.4999 3.04219 23.3999 2.84219 23.1999L2.44219 21.5999ZM2.14219 19.1999L2.24219 19.0999L2.34219 18.9999L2.44219 18.8999L2.54219 18.7999C2.64219 18.7999 2.64219 18.6999 2.74219 18.6999C2.84219 18.6999 2.84219 18.5999 2.94219 18.5999C3.04219 18.5999 3.04219 18.4999 3.14219 18.4999C3.24219 18.4999 3.24219 18.3999 3.34219 18.3999C3.44219 18.3999 3.54219 18.2999 3.64219 18.2999C3.74219 18.2999 3.84219 18.1999 3.94219 18.1999C4.04219 18.1999 4.14219 18.0999 4.24219 18.0999C4.34219 18.0999 4.44219 17.9999 4.54219 17.9999C4.64219 17.9999 4.74219 17.8999 4.84219 17.8999C4.94219 17.8999 5.04219 17.7999 5.14219 17.7999C5.24219 17.6999 5.44219 17.6999 5.54219 17.5999C5.64219 17.4999 5.74219 17.4999 5.94219 17.3999C6.04219 17.2999 6.24219 17.2999 6.34219 17.1999C6.44219 17.0999 6.64219 17.0999 6.74219 16.9999C6.84219 16.8999 7.04219 16.8999 7.14219 16.7999C7.34219 16.6999 7.44219 16.6999 7.64219 16.5999C7.84219 16.5999 7.94219 16.4999 8.14219 16.4999C8.34219 16.3999 8.44219 16.3999 8.64219 16.2999C8.84219 16.2999 8.94219 16.1999 9.14219 16.1999C9.34219 16.0999 9.54219 16.0999 9.74219 15.9999C9.94219 15.9999 10.0422 15.8999 10.2422 15.8999C10.4422 15.7999 10.6422 15.7999 10.8422 15.6999C10.9422 15.6999 11.1422 15.5999 11.2422 15.5999C11.4422 15.4999 11.7422 15.4999 11.9422 15.3999H12.0422C12.4422 15.2999 12.7422 15.1999 13.1422 15.1999C13.5422 15.0999 14.0422 14.9999 14.4422 14.9999C14.5422 14.9999 14.6422 14.9999 14.7422 14.9999C15.0422 14.8999 15.3422 14.8999 15.6422 14.8999C15.7422 14.8999 15.8422 14.8999 16.0422 14.7999C16.3422 14.7999 16.5422 14.6999 16.8422 14.6999C16.9422 14.6999 17.1422 14.6999 17.2422 14.6999C17.4422 14.6999 17.7422 14.5999 17.9422 14.5999C18.0422 14.5999 18.1422 14.5999 18.3422 14.5999C18.5422 14.5999 18.7422 14.5999 19.0422 14.4999C19.1422 14.4999 19.2422 14.4999 19.4422 14.4999C19.6422 14.4999 19.8422 14.4999 20.0422 14.4999C20.1422 14.4999 20.2422 14.4999 20.3422 14.4999C20.5422 14.4999 20.7422 14.4999 20.8422 14.4999C20.9422 14.4999 21.0422 14.4999 21.1422 14.4999C21.3422 14.4999 21.4422 14.4999 21.6422 14.4999C21.7422 14.4999 21.8422 14.4999 21.9422 14.4999C22.0422 14.4999 22.2422 14.4999 22.3422 14.4999C22.4422 14.4999 22.5422 14.4999 22.6422 14.4999C22.7422 14.4999 22.9422 14.4999 23.0422 14.4999C23.1422 14.4999 23.2422 14.4999 23.3422 14.4999C23.4422 14.4999 23.5422 14.4999 23.6422 14.4999C23.7422 14.4999 23.8422 14.4999 23.8422 14.4999C23.9422 14.4999 24.0422 14.4999 24.1422 14.4999C24.2422 14.4999 24.2422 14.4999 24.3422 14.4999C24.4422 14.4999 24.5422 14.4999 24.5422 14.4999C24.6422 14.4999 24.6422 14.4999 24.7422 14.4999C24.8422 14.4999 24.8422 14.4999 24.9422 14.5999H25.0422C25.0422 14.5999 25.1422 14.5999 25.1422 14.6999C25.1422 14.6999 25.2422 14.6999 25.2422 14.7999C25.2422 14.7999 25.2422 14.7999 25.3422 14.7999C24.7422 15.6999 20.8422 17.6999 14.0422 19.0999C7.24219 20.3999 2.84219 20.0999 1.94219 19.3999C2.04219 19.2999 2.04219 19.2999 2.14219 19.1999C2.14219 19.1999 2.14219 19.2999 2.14219 19.1999ZM12.5422 21.2999L12.9422 23.2999C11.8422 23.4999 10.8422 23.5999 9.94219 23.6999L9.54219 21.6999C10.6422 21.5999 11.7422 21.3999 12.5422 21.2999ZM5.94219 23.7999L5.54219 21.8999C5.64219 21.8999 5.74219 21.8999 5.84219 21.8999C6.44219 21.8999 7.04219 21.8999 7.54219 21.7999L7.94219 23.6999C7.24219 23.7999 6.54219 23.7999 5.94219 23.7999ZM14.9422 22.8999L14.5422 20.8999C15.6422 20.6999 22.7422 19.1999 25.9422 16.8999L26.2422 18.4999C25.9422 19.3999 21.9422 21.4999 14.9422 22.8999Z" fill="#00AA58"/>
<path d="M17.1422 32.7999C14.0422 30.9999 11.0422 29.5999 8.54218 28.7999C5.54218 27.8999 3.74218 27.9999 3.04218 29.1999L1.04218 32.6999C-0.957816 36.0999 9.94218 42.4999 11.1422 43.1999C14.2422 44.9999 17.2422 46.3999 19.7422 47.1999C21.0422 47.5999 22.1422 47.7999 23.0422 47.7999C24.1422 47.7999 24.8422 47.4999 25.2422 46.7999L27.2422 43.2999C29.2422 39.8999 18.4422 33.4999 17.1422 32.7999ZM17.2422 35.1999C17.3422 35.2999 17.4422 35.3999 17.6422 35.3999C17.8422 35.4999 18.1422 35.6999 18.3422 35.7999C18.4422 35.8999 18.6422 35.9999 18.7422 36.0999C18.9422 36.1999 19.1422 36.2999 19.3422 36.4999C19.4422 36.5999 19.6422 36.6999 19.7422 36.7999C19.9422 36.8999 20.0422 36.9999 20.2422 37.0999C20.3422 37.1999 20.4422 37.2999 20.6422 37.3999C20.8422 37.4999 20.9422 37.5999 21.1422 37.6999C21.2422 37.7999 21.3422 37.8999 21.4422 37.9999C21.5422 38.0999 21.7422 38.1999 21.8422 38.2999C21.9422 38.3999 22.0422 38.4999 22.1422 38.4999C22.2422 38.5999 22.4422 38.6999 22.5422 38.7999C22.6422 38.8999 22.7422 38.9999 22.8422 38.9999C22.9422 39.0999 23.0422 39.1999 23.1422 39.2999C23.2422 39.3999 23.3422 39.3999 23.3422 39.4999C23.4422 39.5999 23.5422 39.6999 23.6422 39.7999C23.7422 39.8999 23.7422 39.8999 23.8422 39.9999C23.9422 40.0999 24.0422 40.1999 24.1422 40.2999C24.2422 40.3999 24.2422 40.3999 24.3422 40.4999C24.4422 40.5999 24.5422 40.6999 24.5422 40.7999C24.6422 40.8999 24.6422 40.8999 24.6422 40.9999C24.7422 41.0999 24.7422 41.1999 24.8422 41.1999C24.8422 41.2999 24.9422 41.2999 24.9422 41.2999C25.0422 41.3999 25.0422 41.3999 25.1422 41.4999L25.2422 41.5999C25.2422 41.6999 25.3422 41.6999 25.3422 41.7999C25.3422 41.7999 25.3422 41.8999 25.4422 41.8999C25.4422 41.9999 25.5422 41.9999 25.5422 41.9999V42.0999C25.5422 42.0999 25.5422 42.0999 25.5422 42.1999C24.5422 42.4999 20.2422 41.3999 14.2422 37.8999C8.24218 34.3999 5.14218 31.1999 4.94218 30.1999C4.94218 30.1999 4.94218 30.1999 5.04218 30.1999H5.14218C5.24218 30.1999 5.24218 30.1999 5.34218 30.1999C5.34218 30.1999 5.34218 30.1999 5.44218 30.1999C5.54218 30.1999 5.64218 30.1999 5.74218 30.1999C7.44218 30.3999 11.3422 31.5999 16.3422 34.4999C16.5422 34.7999 16.9422 34.9999 17.2422 35.1999ZM5.74218 34.4999C6.24218 34.8999 6.74218 35.3999 7.34218 35.7999L6.34218 37.4999C5.74218 36.9999 5.24218 36.5999 4.84218 36.1999L5.74218 34.4999ZM8.94218 36.9999C9.74218 37.5999 10.5422 38.0999 11.4422 38.6999L10.4422 40.3999C9.54218 39.7999 8.74218 39.2999 7.94218 38.6999L8.94218 36.9999ZM3.64218 32.1999C3.84218 32.4999 4.04218 32.6999 4.34218 32.9999L3.44218 34.5999C3.04218 34.0999 2.94218 33.7999 2.84218 33.5999L3.64218 32.1999ZM12.1422 41.4999C12.1422 41.3999 12.0422 41.3999 12.1422 41.4999L13.1422 39.7999C16.2422 41.5999 19.2422 42.9999 21.7422 43.6999C22.7422 43.9999 23.6422 44.1999 24.3422 44.2999L23.5422 45.6999C22.7422 46.0999 18.3422 44.9999 12.1422 41.4999Z" fill="#00AA58"/>
</svg>
